<?xml version="1.0" encoding="iso-8859-1"?>
<!-- Generator: Adobe Illustrator 16.0.0, SVG Export Plug-In . SVG Version: 6.00 Build 0)  -->
<!DOCTYPE svg PUBLIC "-//W3C//DTD SVG 1.1//EN" "http://www.w3.org/Graphics/SVG/1.1/DTD/svg11.dtd">
<svg version="1.1" id="Capa_1" xmlns="http://www.w3.org/2000/svg" xmlns:xlink="http://www.w3.org/1999/xlink" x="0px" y="0px"
	 width="497.742px" height="497.742px" viewBox="0 0 497.742 497.742" style="enable-background:new 0 0 497.742 497.742;"
	 xml:space="preserve">
<g>
	<path d="M486.867,248.583h-7.691l-48.957-86.93c-1.854-3.297-5.373-5.235-9.496-5.235h-57.565l11.406-60.623
		c1.362-7.241-3.4-13.109-10.644-13.109l-304.416,0.13c-7.826,0-14.168,6.342-14.168,14.167c0,7.825,6.342,14.167,14.168,14.167
		h167.543c6.67,1.149,11.75,6.948,11.75,13.947c0,7.417-5.703,13.494-12.963,14.106H14.168C6.344,139.204,0,145.547,0,153.371
		c0,7.825,6.344,14.167,14.168,14.167H226.43c6.973,0.886,12.367,6.827,12.367,14.041c0,7.246-5.443,13.21-12.461,14.054H34.945
		c-7.824,0-14.166,6.344-14.166,14.168c0,7.824,6.342,14.167,14.166,14.167h44.367L55.957,348.087
		c-1.361,7.24,3.402,13.109,10.645,13.109h20.9c-4.043,29.969,16.342,53.859,46.699,53.859c30.359,0,59.736-23.891,66.969-53.859
		h110.342h31.195c-4.043,29.969,16.34,53.859,46.699,53.859s59.734-23.891,66.971-53.859h9.299h11.604
		c7.24,0,14.215-5.869,15.576-13.109l4.221-22.432c1.266-6.729-2.766-12.268-9.154-13.017l9.586-50.942
		C498.873,254.454,494.107,248.583,486.867,248.583z M175.613,358.137c-3.186,16.927-19.549,30.698-36.477,30.698
		c-16.928,0-28.107-13.771-24.922-30.698c3.184-16.927,19.547-30.698,36.477-30.698C167.615,327.438,178.799,341.21,175.613,358.137
		z M430.814,358.137c-3.185,16.927-19.547,30.698-36.474,30.698c-16.93,0-28.108-13.771-24.922-30.698
		c3.185-16.927,19.545-30.698,36.476-30.698C422.822,327.438,434.002,341.21,430.814,358.137z M345.812,248.583l12.407-65.946
		h51.021l37.137,65.946H345.812z"/>
</g>
<g>
</g>
<g>
</g>
<g>
</g>
<g>
</g>
<g>
</g>
<g>
</g>
<g>
</g>
<g>
</g>
<g>
</g>
<g>
</g>
<g>
</g>
<g>
</g>
<g>
</g>
<g>
</g>
<g>
</g>
</svg>
